# xmcd
#
# Track frame offsets: 
#        150
#        39703
#        50767
#        58537
#        70783
#        80561
#        91235
#        98943
#        107406
#        121720
#        129917
#        138185
#        149338
#        158734
#        167686
#        182636
#        190909
#        199812
#        209963
#
# Disc length: 2932 seconds
#
# Revision: 0
# Processed by: cddbd v1.5.2PL0 Copyright (c) Steve Scherf et al.
# Submitted via: ExactAudioCopy v0.99pb5
#
DISCID=0f0b7213
DTITLE=Dan Huckabee - Learn To Sing Bluegrass Harmony Volume 2-2
DYEAR=2007
DGENRE=Bluegrass
TTITLE0=A Beautiful Life
TTITLE1=Cryin' Holy
TTITLE2=Shady Grove
TTITLE3=Paradise
TTITLE4=Think of What You've Done
TTITLE5=Cabin Home on the Hill
TTITLE6=How Mountain Girls Can Love
TTITLE7=Old Slewfoot
TTITLE8=East Virginia Blues
TTITLE9=Way Downtown
TTITLE10=Your Love is Like a Flower
TTITLE11=House of Gold
TTITLE12=Little Georgia Rose
TTITLE13=Love Come Home
TTITLE14=Amazing Grace
TTITLE15=Swing Low Sweet Chariot
TTITLE16=Long Journey Home
TTITLE17=Catch a Train and Ride
TTITLE18=Two Different Worlds
EXTD=
EXTT0=
EXTT1=
EXTT2=
EXTT3=
EXTT4=
EXTT5=
EXTT6=
EXTT7=
EXTT8=
EXTT9=
EXTT10=
EXTT11=
EXTT12=
EXTT13=
EXTT14=
EXTT15=
EXTT16=
EXTT17=
EXTT18=
PLAYORDER=
